HIERARCHY
ROOT Hips
{
	OFFSET 0.00000 0.00000 0.00000
	CHANNELS 6 Xposition Yposition Zposition Zrotation Yrotation Xrotation 
	JOINT RightUpLegDummy
	{
		OFFSET 0 0 0
		CHANNELS 3 Zrotation Yrotation Xrotation
		JOINT RightUpLeg
		{
			OFFSET -3.52197 -3.41223 0.04002
			CHANNELS 3 Zrotation Yrotation Xrotation
			JOINT RightLeg
			{
				OFFSET 0.00006 -17.42390 1.60435
				CHANNELS 3 Zrotation Yrotation Xrotation
				JOINT RightFoot
				{
					OFFSET 0.06153 -16.50078 -1.63901
					CHANNELS 3 Zrotation Yrotation Xrotation
					JOINT RightToes
					{
						OFFSET 0.00298 -1.73825 3.34613
						CHANNELS 3 Zrotation Yrotation Xrotation
						End Site
						{
							OFFSET 0.00480 -0.05416 3.85043
						}
					}
				}
			}
		}
	}
	JOINT SpineDummy
	{
		OFFSET 0 0 0
		CHANNELS 3 Zrotation Yrotation Xrotation
		JOINT Spine
		{
			OFFSET 0.00000 4.68130 0.00000
			CHANNELS 3 Zrotation Yrotation Xrotation
			JOINT Spine1
			{
				OFFSET -0.00000 10.10138 0.05002
				CHANNELS 3 Zrotation Yrotation Xrotation
				JOINT HEadDummy
				{
					OFFSET 0 0 0
					CHANNELS 3 Zrotation Yrotation Xrotation
					JOINT Head
					{
						OFFSET -0.00000 3.43865 0.00438
						CHANNELS 3 Zrotation Yrotation Xrotation
						End Site
						{
							OFFSET -0.11417 5.02924 0.98962
						}
					}
				}
				JOINT LeftShoulder1Dummy
				{
					OFFSET 0 0 0
					CHANNELS 3 Zrotation Yrotation Xrotation
					JOINT LeftShoulder1
					{
						OFFSET 3.53937 -0.14262 -0.08662
						CHANNELS 3 Zrotation Yrotation Xrotation
						JOINT LeftArm
						{
							OFFSET 4.04833 -0.00133 0.12681
							CHANNELS 3 Zrotation Yrotation Xrotation
							JOINT LeftForeArm
							{
								OFFSET 10.33880 -0.01036 -0.55515
								CHANNELS 3 Zrotation Yrotation Xrotation
								JOINT LeftHand
								{
									OFFSET 8.69677 0.07543 0.40060
									CHANNELS 3 Zrotation Yrotation Xrotation
									End Site
									{
										OFFSET 5.28377 -0.21905 0.59205
									}
								}
							}
						}
					}
				}
				JOINT RightShoulderDummy
				{
					OFFSET 0 0 0
					CHANNELS 3 Zrotation Yrotation Xrotation
					JOINT RightShoulder
					{
						OFFSET -3.53937 -0.14262 -0.08660
						CHANNELS 3 Zrotation Yrotation Xrotation
						JOINT RightArm
						{
							OFFSET -4.04833 -0.00133 0.12683
							CHANNELS 3 Zrotation Yrotation Xrotation
							JOINT RightForeArm
							{
								OFFSET -10.37987 -0.01039 -0.55511
								CHANNELS 3 Zrotation Yrotation Xrotation
								JOINT RightHand
								{
									OFFSET -8.67398 0.07538 0.40058
									CHANNELS 3 Zrotation Yrotation Xrotation
									End Site
									{
										OFFSET -5.24810 -0.21916 0.59204
									}
								}
							}
						}
					}
				}
			}
		}
	}
	JOINT LeftUpLegDummy
	{
		OFFSET 0 0 0
		CHANNELS 3 Zrotation Yrotation Xrotation
		JOINT LeftUpLeg
		{
			OFFSET 3.52197 -3.41223 0.04002
			CHANNELS 3 Zrotation Yrotation Xrotation
			JOINT LeftLeg
			{
				OFFSET -0.00012 -17.42399 1.60337
				CHANNELS 3 Zrotation Yrotation Xrotation
				JOINT LeftFoot
				{
					OFFSET -0.09972 -16.50070 -1.63802
					CHANNELS 3 Zrotation Yrotation Xrotation
					JOINT LeftToes
					{
						OFFSET -0.01575 -1.73823 3.34611
						CHANNELS 3 Zrotation Yrotation Xrotation
						End Site
						{
							OFFSET 0.03150 -0.01868 3.85031
						}
					}
				}
			}
		}
	}
}
MOTION
Frames: 12
Frame Time: 0.033333
58.2959 40.5065 1.9824 165.7350 -88.2751 -168.6140 0.0000 0.0000 0.0000 0.9434 -2.5507 3.8769 -1.0548 -11.2178 3.5789 1.0410 -0.0447 -9.0713 0.0000 0.0000 0.0000 0.0000 0.0000 0.0000 3.2678 0.6703 1.6536 -3.1032 1.3125 3.2531 -0.0000 0.0000 -0.0000 0.2024 -7.1412 2.0670 -0.0000 0.0000 -0.0000 -44.3386 -3.1089 3.3659 -28.6958 -2.5674 14.5548 -8.9199 -13.5850 23.8172 5.3778 0.0211 -0.2470 -0.0000 0.0000 -0.0000 35.4256 0.1678 1.5196 41.8108 12.4511 6.2744 11.2068 5.0542 31.7798 -10.0246 -1.2647 -0.3642 0.0000 0.0000 0.0000 -2.7815 1.4383 7.3398 1.5568 22.0834 0.0086 -1.8565 0.0792 -9.1111 0.0000 0.0000 0.0000
58.2959 40.5065 1.9798 165.2070 -88.2967 -168.0960 0.0000 0.0000 0.0000 0.9341 -2.5631 3.8682 -1.0626 -11.2270 3.6338 1.0409 -0.0446 -9.1064 0.0000 0.0000 0.0000 0.0000 0.0000 0.0000 3.2237 0.6640 1.6640 -3.0916 1.3048 3.2562 -0.0000 0.0000 -0.0000 0.1531 -7.0066 2.1113 -0.0000 0.0000 -0.0000 -44.3525 -3.1089 3.3659 -28.6974 -2.5594 14.8575 -8.8313 -13.7280 23.5165 5.3778 0.0211 -0.2470 -0.0000 0.0000 -0.0000 35.4075 0.1678 1.5196 41.8106 12.4295 6.2964 11.2273 5.0508 31.4834 -9.5218 -1.6326 -0.3192 0.0000 0.0000 0.0000 -2.7944 1.4329 7.3751 1.5382 22.1044 -0.0602 -1.8402 0.0781 -9.1111 0.0000 0.0000 0.0000
58.2959 40.5065 1.9746 164.8420 -88.3013 -167.7210 0.0000 0.0000 0.0000 0.9352 -2.5581 3.8530 -1.0718 -11.2340 3.6532 1.0440 -0.0448 -9.1225 0.0000 0.0000 0.0000 0.0000 0.0000 0.0000 3.1279 0.6601 1.6629 -3.0296 1.2900 3.2818 -0.0000 0.0000 -0.0000 0.0947 -6.8311 2.1946 -0.0000 0.0000 -0.0000 -44.4446 -3.1089 3.3697 -28.6117 -2.6267 15.0347 -8.7945 -13.7943 23.3378 5.3778 0.0211 -0.2470 -0.0000 0.0000 -0.0000 35.3512 0.1678 1.5196 41.8095 12.4383 6.2809 11.2457 5.0214 31.0943 -9.0332 -2.2336 -0.2608 0.0000 0.0000 0.0000 -2.7985 1.4267 7.3669 1.5393 22.1070 -0.0665 -1.8633 0.0796 -9.1111 0.0000 0.0000 0.0000
58.2952 40.5065 1.9699 165.0170 -88.2614 -167.8640 0.0000 0.0000 0.0000 0.9473 -2.5325 3.8343 -1.0801 -11.2174 3.6155 1.0662 -0.0463 -9.1036 0.0000 0.0000 0.0000 0.0000 0.0000 0.0000 3.0331 0.6514 1.6903 -2.9713 1.2697 3.2463 -0.0000 0.0000 -0.0000 0.0381 -6.6906 2.2819 -0.0000 0.0000 -0.0000 -44.5366 -3.1089 3.3772 -28.4792 -2.7638 14.6365 -8.9483 -13.5643 23.7270 5.3778 0.0211 -0.2470 -0.0000 0.0000 -0.0000 35.3264 0.1678 1.5196 41.7945 12.4735 6.2335 11.2532 4.9567 31.0096 -8.9909 -2.5010 -0.2412 0.0000 0.0000 0.0000 -2.7966 1.4186 7.3222 1.5560 22.1205 -0.0253 -1.9109 0.0827 -9.1054 0.0000 0.0000 0.0000
58.2944 40.5065 1.9676 165.4870 -88.1738 -168.2960 0.0000 0.0000 0.0000 0.9559 -2.5052 3.7988 -1.0915 -11.1611 3.5857 1.0939 -0.0481 -9.0820 0.0000 0.0000 0.0000 0.0000 0.0000 0.0000 2.9894 0.6308 1.7645 -2.9943 1.2521 3.1116 -0.0000 0.0000 -0.0000 -0.0430 -6.5149 2.3648 -0.0000 0.0000 -0.0000 -44.5414 -3.1089 3.3808 -28.3923 -2.8483 14.0301 -9.1510 -13.2410 24.3530 5.3778 0.0211 -0.2470 -0.0000 0.0000 -0.0000 35.3752 0.1730 1.5196 41.7543 12.5050 6.2360 11.2675 4.8879 31.1827 -9.1295 -2.3369 -0.2562 0.0000 0.0000 0.0000 -2.8074 1.4051 7.3010 1.5522 22.2065 -0.0524 -1.9237 0.0835 -9.0830 0.0000 0.0000 0.0000
58.2929 40.5065 1.9663 166.2820 -88.0345 -169.0530 0.0000 0.0000 0.0000 0.9671 -2.4718 3.7492 -1.1105 -11.0592 3.5813 1.1010 -0.0486 -9.0662 0.0000 0.0000 0.0000 0.0000 0.0000 0.0000 2.9954 0.6181 1.8395 -3.0732 1.2537 2.9706 -0.0000 0.0000 -0.0000 -0.1371 -6.2666 2.4400 -0.0000 0.0000 -0.0000 -44.5375 -3.1089 3.3829 -28.3121 -2.8247 13.7579 -9.2254 -13.1094 24.6972 5.3778 0.0211 -0.2470 -0.0000 0.0000 -0.0000 35.4071 0.1784 1.5196 41.7591 12.5428 6.3010 11.2885 4.8528 31.3130 -9.1378 -2.1477 -0.2699 0.0000 0.0000 0.0000 -2.8257 1.3928 7.3077 1.5309 22.3638 -0.1357 -1.9090 0.0826 -9.0552 0.0000 0.0000 0.0000
58.2896 40.5065 1.9641 167.5680 -87.8590 -170.3180 0.0000 0.0000 0.0000 1.0001 -2.4179 3.7276 -1.1341 -10.9313 3.5569 1.0772 -0.0472 -9.0410 0.0000 0.0000 0.0000 0.0000 0.0000 0.0000 3.0046 0.6337 1.8757 -3.0998 1.2750 2.9214 -0.0000 0.0000 -0.0000 -0.2197 -6.0438 2.4833 -0.0000 0.0000 -0.0000 -44.6569 -3.1089 3.3910 -28.1321 -2.7727 13.7636 -9.2144 -13.1211 24.7745 5.3778 0.0211 -0.2470 -0.0000 0.0000 -0.0000 35.3179 0.1827 1.5196 41.8638 12.6038 6.3483 11.2952 4.8565 31.3040 -9.0511 -2.2040 -0.2635 0.0000 0.0000 0.0000 -2.8273 1.3946 7.3207 1.5279 22.5361 -0.1742 -1.9192 0.0832 -9.0464 0.0000 0.0000 0.0000
58.2817 40.5065 1.9612 169.0630 -87.7011 -171.8280 0.0000 0.0000 0.0000 1.0504 -2.3613 3.7668 -1.1497 -10.8193 3.5042 1.0456 -0.0452 -9.0156 0.0000 0.0000 0.0000 0.0000 0.0000 0.0000 2.9803 0.6606 1.8894 -3.0261 1.2882 2.9378 -0.0000 0.0000 -0.0000 -0.3120 -5.9555 2.4697 -0.0000 0.0000 -0.0000 -44.8655 -3.1089 3.4027 -27.8820 -2.7564 13.7305 -9.2435 -13.0811 24.8634 5.3778 0.0211 -0.2470 -0.0000 0.0000 -0.0000 35.1674 0.1857 1.5196 41.9948 12.6601 6.3395 11.2793 4.8804 31.2791 -9.0031 -2.3281 -0.2541 0.0000 0.0000 0.0000 -2.8042 1.4156 7.3586 1.5472 22.6813 -0.1629 -1.9532 0.0854 -9.0632 0.0000 0.0000 0.0000
58.2687 40.5065 1.9587 170.2700 -87.6041 -173.0750 0.0000 0.0000 0.0000 1.0914 -2.3346 3.8407 -1.1483 -10.7470 3.4707 1.0351 -0.0445 -9.0145 0.0000 0.0000 0.0000 0.0000 0.0000 0.0000 2.9349 0.6642 1.9136 -2.9250 1.2713 2.9275 -0.0000 0.0000 -0.0000 -0.4325 -5.9790 2.4159 -0.0000 0.0000 -0.0000 -45.0060 -3.1089 3.4092 -27.7069 -2.7321 13.7415 -9.2976 -13.0201 24.9110 5.3778 0.0211 -0.2470 -0.0000 0.0000 -0.0000 35.1057 0.1878 1.5196 42.0308 12.6708 6.3313 11.2681 4.9136 31.2745 -8.9849 -2.2947 -0.2576 0.0000 0.0000 0.0000 -2.7715 1.4484 7.4402 1.5565 22.7933 -0.1797 -1.9673 0.0863 -9.0848 0.0000 0.0000 0.0000
58.2542 40.5065 1.9579 170.9840 -87.5502 -173.8280 0.0000 0.0000 0.0000 1.1108 -2.3333 3.9039 -1.1385 -10.6974 3.4702 1.0411 -0.0449 -9.0302 0.0000 0.0000 0.0000 0.0000 0.0000 0.0000 2.9152 0.6403 1.9600 -2.9013 1.2407 2.8503 -0.0000 0.0000 -0.0000 -0.5126 -6.0187 2.3856 -0.0000 0.0000 -0.0000 -45.0132 -3.1089 3.4125 -27.6622 -2.6530 14.0164 -9.2953 -13.0685 24.7211 5.3778 0.0211 -0.2470 -0.0000 0.0000 -0.0000 35.1663 0.1896 1.5196 41.9668 12.6346 6.3599 11.2754 4.9474 31.2196 -8.9785 -2.1848 -0.2634 0.0000 0.0000 0.0000 -2.7472 1.4775 7.5297 1.5498 22.8733 -0.2243 -1.9672 0.0863 -9.0917 0.0000 0.0000 0.0000
58.2411 40.5065 1.9578 171.3560 -87.4982 -174.2290 0.0000 0.0000 0.0000 1.1190 -2.3292 3.9538 -1.1367 -10.6466 3.4677 1.0488 -0.0453 -9.0404 0.0000 0.0000 0.0000 0.0000 0.0000 0.0000 2.9486 0.6109 2.0254 -2.9759 1.2238 2.7334 -0.0000 0.0000 -0.0000 -0.4588 -6.0386 2.4340 -0.0000 0.0000 -0.0000 -44.9519 -3.1089 3.4141 -27.6782 -2.5497 14.3754 -9.2542 -13.1759 24.4236 5.3778 0.0211 -0.2470 -0.0000 0.0000 -0.0000 35.2556 0.1911 1.5196 41.8948 12.5772 6.3851 11.2849 4.9698 31.1227 -9.0080 -2.1884 -0.2635 0.0000 0.0000 0.0000 -2.7391 1.4911 7.5884 1.5575 22.9243 -0.2280 -1.9925 0.0879 -9.0926 0.0000 0.0000 0.0000
58.2274 40.5051 1.9581 171.5970 -87.4437 -174.4990 0.0000 0.0000 0.0000 1.1236 -2.3271 4.0004 -1.1459 -10.5961 3.4689 1.0453 -0.0451 -9.0595 0.0000 0.0000 0.0000 0.0000 0.0000 0.0000 3.0011 0.5892 2.0805 -3.0690 1.2185 2.6287 -0.0000 0.0000 -0.0000 -0.2936 -6.0641 2.5387 -0.0000 0.0000 -0.0000 -44.8944 -3.1089 3.4153 -27.6987 -2.4665 14.5101 -9.2287 -13.2277 24.2784 5.3778 0.0211 -0.2470 -0.0000 0.0000 -0.0000 35.3106 0.1924 1.5196 41.8558 12.5182 6.3822 11.2864 4.9763 31.0338 -9.0229 -2.3059 -0.2557 0.0000 0.0000 0.0000 -2.7457 1.4915 7.6289 1.5868 22.9662 -0.1906 -2.0274 0.0902 -9.1102 0.0000 0.0000 0.0000
